<svg width="31" height="24" viewBox="0 0 31 24" fill="none" xmlns="http://www.w3.org/2000/svg">
<path d="M14.6223 6.10632C14.9628 5.80412 15.0972 5.32924 14.9197 4.90712C14.8093 4.65289 14.6894 4.40346 14.5551 4.16362L14.4064 3.90459C14.2625 3.66475 14.1042 3.42971 13.9363 3.20426C13.6629 2.8397 13.1832 2.71978 12.7515 2.86368L11.3988 3.30979C10.8856 2.88767 10.2956 2.5423 9.66239 2.30726L9.36978 0.916187C9.27865 0.470086 8.93328 0.115123 8.48238 0.0623583C8.16579 0.0191872 7.8444 0 7.51822 0H7.48464C7.15846 0 6.83708 0.0191872 6.52049 0.0575615C6.06959 0.110326 5.72422 0.470086 5.63308 0.91139L5.34048 2.30726C4.70251 2.5471 4.1173 2.88767 3.60404 3.30979L2.24655 2.86848C1.81484 2.72458 1.33516 2.8445 1.06174 3.20905C0.893853 3.4345 0.735559 3.66955 0.586859 3.90939L0.442955 4.16362C0.308645 4.40346 0.188725 4.65289 0.0783988 4.91191C-0.0990825 5.32924 0.0352277 5.80412 0.3758 6.11111L1.44069 7.06088C1.38792 7.38226 1.35914 7.71804 1.35914 8.05861C1.35914 8.39918 1.38792 8.73496 1.44069 9.06114L0.3758 10.0109C0.0352277 10.3131 -0.0990825 10.788 0.0783988 11.2101C0.188725 11.4643 0.308645 11.7138 0.442955 11.9584L0.586859 12.2078C0.730762 12.4525 0.889057 12.6827 1.06174 12.9082C1.33516 13.2727 1.81484 13.3926 2.24655 13.2487L3.59924 12.8026C4.1125 13.2248 4.70251 13.5701 5.33568 13.8052L5.62829 15.201C5.71943 15.6471 6.0648 16.0021 6.51569 16.0549C6.83708 16.0932 7.16326 16.1124 7.49424 16.1124C7.82522 16.1124 8.1514 16.0932 8.47278 16.0549C8.92368 16.0021 9.26905 15.6423 9.36019 15.201L9.65279 13.8052C10.2908 13.5653 10.876 13.2248 11.3892 12.8026L12.7419 13.2487C13.1736 13.3926 13.6533 13.2727 13.9267 12.9082C14.0946 12.6827 14.2529 12.4525 14.3968 12.2078L14.5455 11.9488C14.6798 11.709 14.7998 11.4595 14.9101 11.2053C15.0876 10.788 14.9532 10.3131 14.6127 10.0061L13.5478 9.05634C13.6006 8.73016 13.6293 8.39439 13.6293 8.05381C13.6293 7.71324 13.6006 7.37747 13.5478 7.05128L14.6127 6.10152L14.6223 6.10632ZM5.19658 8.05861C5.19658 7.44796 5.43916 6.86232 5.87095 6.43052C6.30275 5.99873 6.88839 5.75615 7.49904 5.75615C8.10969 5.75615 8.69533 5.99873 9.12712 6.43052C9.55892 6.86232 9.8015 7.44796 9.8015 8.05861C9.8015 8.66926 9.55892 9.2549 9.12712 9.6867C8.69533 10.1185 8.10969 10.3611 7.49904 10.3611C6.88839 10.3611 6.30275 10.1185 5.87095 9.6867C5.43916 9.2549 5.19658 8.66926 5.19658 8.05861ZM24.0336 23.6242C24.3358 23.9648 24.8107 24.0991 25.2328 23.9216C25.487 23.8113 25.7364 23.6914 25.9763 23.557L26.2353 23.4083C26.4751 23.2644 26.7102 23.1061 26.9356 22.9383C27.3002 22.6648 27.4201 22.1852 27.2762 21.7535L26.8301 20.4008C27.2522 19.8875 27.5976 19.2975 27.8326 18.6643L29.2285 18.3717C29.6746 18.2806 30.0296 17.9352 30.0823 17.4843C30.1207 17.1629 30.1399 16.8367 30.1399 16.5058C30.1399 16.1748 30.1207 15.8486 30.0823 15.5272C30.0296 15.0763 29.6698 14.7309 29.2285 14.6398L27.8326 14.3424C27.5928 13.7044 27.2522 13.1192 26.8301 12.606L27.2762 11.2533C27.4201 10.8216 27.3002 10.3419 26.9356 10.0685C26.7102 9.90058 26.4751 9.74228 26.2353 9.59358L25.9811 9.44968C25.7412 9.31537 25.4918 9.19545 25.2328 9.08512C24.8155 8.90764 24.3406 9.04195 24.0336 9.38253L23.0838 10.4474C22.7576 10.3946 22.4219 10.3659 22.0813 10.3659C21.7407 10.3659 21.4049 10.3946 21.0788 10.4474L20.129 9.38253C19.8268 9.04195 19.3519 8.90764 18.9298 9.08512C18.6756 9.19545 18.4261 9.31537 18.1815 9.44968L17.9321 9.59358C17.6874 9.73749 17.4572 9.89578 17.2317 10.0685C16.8672 10.3419 16.7472 10.8216 16.8912 11.2533L17.3373 12.606C16.9151 13.1192 16.5698 13.7092 16.3347 14.3424L14.9389 14.6302C14.4928 14.7214 14.1378 15.0667 14.085 15.5176C14.0467 15.839 14.0275 16.1652 14.0275 16.4962C14.0275 16.8271 14.0467 17.1533 14.085 17.4747C14.1378 17.9256 14.4976 18.271 14.9389 18.3621L16.3347 18.6547C16.5746 19.2927 16.9151 19.8779 17.3373 20.3912L16.8912 21.7439C16.7472 22.1756 16.8672 22.6552 17.2317 22.9287C17.4572 23.0966 17.6874 23.2548 17.9321 23.3988L18.1911 23.5475C18.4309 23.6818 18.6804 23.8017 18.9346 23.912C19.3519 24.0895 19.8268 23.9552 20.1338 23.6146L21.0836 22.5497C21.4097 22.6025 21.7455 22.6313 22.0861 22.6313C22.4267 22.6313 22.7624 22.6025 23.0886 22.5497L24.0384 23.6146L24.0336 23.6242ZM22.0813 14.1985C22.3836 14.1985 22.6831 14.2581 22.9624 14.3738C23.2417 14.4895 23.4956 14.6591 23.7094 14.8729C23.9232 15.0867 24.0928 15.3405 24.2085 15.6199C24.3242 15.8992 24.3837 16.1986 24.3837 16.501C24.3837 16.8033 24.3242 17.1027 24.2085 17.3821C24.0928 17.6614 23.9232 17.9152 23.7094 18.129C23.4956 18.3429 23.2417 18.5125 22.9624 18.6282C22.6831 18.7439 22.3836 18.8034 22.0813 18.8034C21.7789 18.8034 21.4795 18.7439 21.2002 18.6282C20.9208 18.5125 20.667 18.3429 20.4532 18.129C20.2394 17.9152 20.0698 17.6614 19.9541 17.3821C19.8384 17.1027 19.7788 16.8033 19.7788 16.501C19.7788 16.1986 19.8384 15.8992 19.9541 15.6199C20.0698 15.3405 20.2394 15.0867 20.4532 14.8729C20.667 14.6591 20.9208 14.4895 21.2002 14.3738C21.4795 14.2581 21.7789 14.1985 22.0813 14.1985Z" fill="#F6F6F6"/>
</svg>
