<svg width="24" height="30" viewBox="0 0 24 30" fill="none" xmlns="http://www.w3.org/2000/svg">
<mask id="path-1-inside-1_885_353" fill="white">
<path d="M0 3.29787C0 1.47651 1.47651 0 3.29787 0H20.7021C22.5235 0 24 1.47651 24 3.29787V26.2021C24 28.0235 22.5235 29.5 20.7021 29.5H3.29787C1.47651 29.5 0 28.0235 0 26.2021V3.29787Z"/>
</mask>
<path d="M-3 3.29787C-3 -0.180346 -0.180346 -3 3.29787 -3H20.7021C24.1803 -3 27 -0.180346 27 3.29787L21 3.29787C21 3.13336 20.8666 3 20.7021 3H3.29787C3.13336 3 3 3.13336 3 3.29787L-3 3.29787ZM27 29.2021C27 32.6803 24.1803 35.5 20.7021 35.5H3.29787C-0.180346 35.5 -3 32.6803 -3 29.2021L3 23.5C3 23.5 3.13336 23.5 3.29787 23.5H20.7021C20.8666 23.5 21 23.5 21 23.5L27 29.2021ZM3.29787 35.5C-0.180346 35.5 -3 32.6803 -3 29.2021V3.29787C-3 -0.180346 -0.180346 -3 3.29787 -3L3.29787 3C3.13336 3 3 3.13336 3 3.29787V23.5C3 23.5 3.13336 23.5 3.29787 23.5L3.29787 35.5ZM20.7021 -3C24.1803 -3 27 -0.180346 27 3.29787V29.2021C27 32.6803 24.1803 35.5 20.7021 35.5V23.5C20.8666 23.5 21 23.5 21 23.5V3.29787C21 3.13336 20.8666 3 20.7021 3V-3Z" fill="#F6F6F6" mask="url(#path-1-inside-1_885_353)"/>
<path fill-rule="evenodd" clip-rule="evenodd" d="M11.1813 18.5115L7.33255 14.5591H7.33736C6.88514 14.0996 6.88995 13.3486 7.33736 12.8842C7.78478 12.4198 8.51603 12.4198 8.96825 12.8842L10.8445 14.811V8.18573C10.8445 7.52864 11.3593 7 11.9991 7C12.6389 7 13.1537 7.52864 13.1537 8.18573V14.811L15.0299 12.8842C15.4774 12.4198 16.2086 12.4247 16.6608 12.8842C17.1131 13.3437 17.1131 14.0946 16.6608 14.5591L12.8121 18.5115C12.3647 18.9759 11.6335 18.9759 11.1813 18.5115Z" fill="#F6F6F6"/>
</svg>
