<svg width="24" height="30" viewBox="0 0 24 30" fill="none" xmlns="http://www.w3.org/2000/svg">
<mask id="path-1-inside-1_1032_56" fill="white">
<path d="M0 3.29787C0 1.47651 1.47651 0 3.29787 0H20.7021C22.5235 0 24 1.47651 24 3.29787V26.2021C24 28.0235 22.5235 29.5 20.7021 29.5H3.29787C1.47651 29.5 0 28.0235 0 26.2021V3.29787Z"/>
</mask>
<path d="M-3 3.29787C-3 -0.180346 -0.180346 -3 3.29787 -3H20.7021C24.1803 -3 27 -0.180346 27 3.29787L21 3.29787C21 3.13336 20.8666 3 20.7021 3H3.29787C3.13336 3 3 3.13336 3 3.29787L-3 3.29787ZM27 29.2021C27 32.6803 24.1803 35.5 20.7021 35.5H3.29787C-0.180346 35.5 -3 32.6803 -3 29.2021L3 23.5C3 23.5 3.13336 23.5 3.29787 23.5H20.7021C20.8666 23.5 21 23.5 21 23.5L27 29.2021ZM3.29787 35.5C-0.180346 35.5 -3 32.6803 -3 29.2021V3.29787C-3 -0.180346 -0.180346 -3 3.29787 -3L3.29787 3C3.13336 3 3 3.13336 3 3.29787V23.5C3 23.5 3.13336 23.5 3.29787 23.5L3.29787 35.5ZM20.7021 -3C24.1803 -3 27 -0.180346 27 3.29787V29.2021C27 32.6803 24.1803 35.5 20.7021 35.5L20.7021 23.5C20.8666 23.5 21 23.5 21 23.5V3.29787C21 3.13336 20.8666 3 20.7021 3L20.7021 -3Z" fill="#202020" mask="url(#path-1-inside-1_1032_56)"/>
</svg>
