<svg width="34" height="24" viewBox="0 0 34 24" fill="none" xmlns="http://www.w3.org/2000/svg">
<path d="M7.60909 24C3.40824 24 0 20.5446 0 16.2857C0 12.9214 2.1242 10.0607 5.08329 9.00536C5.07801 8.86071 5.07273 8.71607 5.07273 8.57143C5.07273 3.83571 8.85614 0 13.5273 0C16.6607 0 19.3926 1.725 20.8563 4.29643C21.6595 3.75 22.6318 3.42857 23.6727 3.42857C26.4733 3.42857 28.7455 5.73214 28.7455 8.57143C28.7455 9.225 28.6239 9.84643 28.4073 10.425C31.4932 11.0571 33.8182 13.8268 33.8182 17.1429C33.8182 20.9304 30.7904 24 27.0545 24H7.60909ZM11.7835 15.0536L16.0108 19.3393C16.5075 19.8429 17.3107 19.8429 17.8021 19.3393L22.0294 15.0536C22.5261 14.55 22.5261 13.7357 22.0294 13.2375C21.5327 12.7393 20.7295 12.7339 20.2381 13.2375L18.1773 15.3268V8.14286C18.1773 7.43036 17.6119 6.85714 16.9091 6.85714C16.2063 6.85714 15.6409 7.43036 15.6409 8.14286V15.3268L13.5801 13.2375C13.0834 12.7339 12.2802 12.7339 11.7888 13.2375C11.2974 13.7411 11.2921 14.5554 11.7888 15.0536H11.7835Z" fill="#F6F6F6"/>
</svg>
