<svg width="163" height="163" viewBox="0 0 163 163" fill="none" xmlns="http://www.w3.org/2000/svg">
<circle cx="81.114" cy="81.114" r="81.114" fill="#D9D9D9"/>
<path d="M31.0039 79.4779C26.5748 69.6354 59.301 71.1118 88.0463 52.2909C108.557 41.9705 121.025 18.0883 122.005 20.4092C126.495 31.0518 91.0229 58.8759 88.9825 59.7368C86.9422 60.5977 38.3857 85.1373 31.0039 79.4779Z" fill="#B2B2B2"/>
<path fill-rule="evenodd" clip-rule="evenodd" d="M10.4108 120.899C7.69385 116.081 5.45512 110.958 3.75903 105.593C5.37069 105.593 7.04734 105.602 8.78272 105.612C20.1333 105.677 33.9958 105.755 48.61 103.232C60.9836 98.9615 71.4745 93.0538 80.0002 88.2529C93.0209 80.9207 101.458 76.1698 105.016 83.7753C112.255 99.2472 65.3885 116.003 46.5888 118.329C37.6991 119.428 23.4375 120.841 10.4108 120.899Z" fill="#E7E7E7"/>
<path fill-rule="evenodd" clip-rule="evenodd" d="M160.072 62.4575C159.962 62.62 159.845 62.7921 159.723 62.9731C155.028 69.9004 141.47 89.9054 132.006 84.8208C129.548 80.8175 131.07 79.5156 134.399 76.6693C137.558 73.9674 142.345 69.8739 146.899 60.7567C148.712 57.1264 151.153 51.4088 153.792 45.0535C156.515 50.532 158.637 56.3621 160.072 62.4575Z" fill="#B2B2B2"/>
<path d="M29.8401 131.88C30.9995 129.553 50.0705 129.674 60.5239 127.341C70.1521 125.737 88.4001 115.749 87.6692 117.973C84.858 126.528 62.5728 130.961 60.2911 131.164C58.0093 131.367 30.9726 134.164 29.8401 131.88Z" fill="#B2B2B2"/>
<path d="M92.9797 66.473C91.4671 63.8787 104.647 61.2405 113.627 49.0191C128.447 31.5368 131.923 23.0965 132.687 23.7808C134.876 25.7408 115.275 49.5529 113.797 51.2025C112.32 52.8521 98.7095 64.018 92.9797 66.473Z" fill="#E7E7E7"/>
<path d="M96.8018 133.979C95.9702 131.093 109.395 131.762 121.094 122.11C139.742 108.788 145.179 101.455 145.752 102.306C147.394 104.742 122.56 123.031 120.724 124.269C118.888 125.507 102.958 133.001 96.8018 133.979Z" fill="#B2B2B2"/>
<path d="M59.9212 52.6123C58.9965 51.5719 62.4137 53.043 65.0163 50.64C65.0163 50.64 69.658 46.5141 70.505 46.4411C73.4319 46.1888 65.5676 52.0444 65.1183 52.1929C64.669 52.3414 61.1001 53.9385 59.9212 52.6123Z" fill="#E7E7E7"/>
<path d="M37.5244 143.166C38.0133 142.613 42.047 142.16 45.5884 142.083C45.5884 142.083 52.4067 140.654 53.0898 141.16C55.45 142.91 52.9552 143.303 51.8289 143.33C50.7026 143.357 36.3494 144.496 37.5244 143.166Z" fill="#E7E7E7"/>
<path fill-rule="evenodd" clip-rule="evenodd" d="M2.5238 60.9586C3.10174 58.6984 3.77462 56.4761 4.53793 54.2964C10.6903 53.3973 16.6578 51.0643 21.7461 49.075C30.5084 45.6495 36.6631 43.2433 36.6631 50.9347C32.3347 59.6266 16.3254 60.4552 9.97224 60.784C8.7409 60.8478 7.87228 60.8927 7.52172 60.9725C7.12526 61.0628 5.28317 61.0725 2.5238 60.9586Z" fill="#B2B2B2"/>
<path d="M124.959 110.698C124.137 109.195 127.626 108.932 130.38 105.759C137.533 101.168 139.238 95.5192 140.92 97.7433C142.602 99.9674 130.918 107.836 130.437 108.2C129.956 108.564 127.128 111.014 124.959 110.698Z" fill="#B2B2B2"/>
</svg>
