<svg width="77" height="82" viewBox="0 0 77 82" fill="none" xmlns="http://www.w3.org/2000/svg">
<circle cx="38.1" cy="41.0215" r="17.0827" transform="rotate(-55.1562 38.1 41.0215)" fill="#B9B9B9"/>
<path fill-rule="evenodd" clip-rule="evenodd" d="M41.2446 6.75723C37.7098 6.45768 33.5345 21.6701 31.9189 40.7351C30.3033 59.8001 31.8592 75.4982 35.394 75.7977C38.9289 76.0973 43.1041 60.8849 44.7197 41.8199C46.3354 22.7549 44.7795 7.05678 41.2446 6.75723ZM39.4824 16.3303C36.9326 16.1143 33.9262 27.0255 32.7673 40.7013C31.6084 54.3772 32.7358 65.6387 35.2856 65.8548C37.8353 66.0709 40.8417 55.1596 42.0007 41.4838C43.1596 27.808 42.0321 16.5464 39.4824 16.3303Z" fill="#DFDFDF"/>
<path fill-rule="evenodd" clip-rule="evenodd" d="M37.9589 23.938L33.8848 57.5809C31.952 57.0892 30.0732 56.2482 28.3399 55.0416C20.5968 49.6512 18.6896 39.0045 24.0799 31.2615C27.3679 26.5385 32.6114 23.9867 37.9589 23.938Z" fill="#B9B9B9"/>
</svg>
